# xmcd CD database file
#
# Track frame offsets:
#	150
#	21702
#	47047
#	67110
#	89125
#	108052
#	116890
#	128802
#	150007
#	168272
#	190567
#	213100
#
# Disc length: 3197 seconds
#
# Revision: 0
# Processed by: cddbd v1.5.1PL0 Copyright (c) Steve Scherf et al.
# Submitted via: CDex 1.51
#
DISCID=9e0c7b0c
DTITLE=Rabbit - MR. DREAM
DYEAR=1994
DGENRE=Hard Rock
TTITLE0=TRAGEDY
TTITLE1=FIGHTING GUY
TTITLE2=MR. DREAM
TTITLE3=MISS WILD
TTITLE4=CHERRY JUICE
TTITLE5=A PEP GUITAR
TTITLE6=ROCK and ROLL POISONING
TTITLE7=SHE'S SO GOOD
TTITLE8=SEASON
TTITLE9=SAY SAY SAY
TTITLE10=CLUB HEARTBREAK
TTITLE11=PHYSICAL LESSON
EXTD=YEAR: 1994
EXTT0=
EXTT1=
EXTT2=
EXTT3=
EXTT4=
EXTT5=
EXTT6=
EXTT7=
EXTT8=
EXTT9=
EXTT10=
EXTT11=
PLAYORDER=
